nColumns=19
nRows=72
DataType=double
version=3
OpenSimVersion=4.1
endheader
time	ground_force_1_vx	ground_force_1_vy	ground_force_1_vz	ground_force_1_px	ground_force_1_py	ground_force_1_pz	ground_force_1_mx	ground_force_1_my	ground_force_1_mz	ground_force_2_vx	ground_force_2_vy	ground_force_2_vz	ground_force_2_px	ground_force_2_py	ground_force_2_pz	ground_force_2_mx	ground_force_2_my	ground_force_2_mz
0.33	-8.78288	18.8296	-6.43503	1.09853	0	-0.28682	-0	2.58911	-0	0	0	0	0.000723044	0	0.000173452	0	0	0
0.34	-30.9422	74.3878	-14.9218	1.13711	0	-0.32533	-0	4.57057	-0	0	0	0	0.000723044	0	0.000173452	0	0	0
0.35	-83.6248	224.476	-25.0346	1.1288	0	-0.338113	-0	5.88305	-0	0	0	0	0.000723044	0	0.000173452	0	0	0
0.36	-141.344	488.257	-28.9056	1.11133	0	-0.343289	-0	5.80469	-0	0	0	0	0.000723044	0	0.000173452	0	0	0
0.37	-151.692	812.737	-18.3819	1.083	0	-0.348087	-0	3.98329	-0	0	0	0	0.000723044	0	0.000173452	0	0	0
0.38	-148.183	1125.15	7.3357	1.04804	0	-0.353669	-0	0.742106	-0	0	0	0	0.000723044	0	0.000173452	0	0	0
0.39	-171.879	1352.84	39.6064	1.01292	0	-0.358656	0	-2.94544	0	0	0	0	0.000723044	0	0.000173452	0	0	0
0.4	-184.722	1480.66	64.4181	0.976415	0	-0.361987	0	-5.85655	0	0	0	0	0.000723044	0	0.000173452	0	0	0
0.41	-168.836	1555.51	73.0744	0.936663	0	-0.363471	0	-7.08446	0	0	0	0	0.000723044	0	0.000173452	0	0	0
0.42	-129.007	1606.14	68.2811	0.894485	0	-0.363046	0	-6.43164	0	0	0	0	0.000723044	0	0.000173452	0	0	0
0.43	-64.7376	1623.69	57.7316	0.851531	0	-0.361682	0	-4.41803	0	0	0	0	0.000723044	0	0.000173452	0	0	0
0.44	16.2926	1593.44	48.6693	0.807507	0	-0.360506	0	-1.95321	0	0	0	0	0.000723044	0	0.000173452	0	0	0
0.45	101.627	1508.85	45.3861	0.76202	0	-0.359652	-0	0.109201	-0	0	0	0	0.000723044	0	0.000173452	0	0	0
0.46	181.535	1368.59	46.873	0.715459	0	-0.359342	-0	1.30299	-0	0	0	0	0.000723044	0	0.000173452	0	0	0
0.47	239.233	1176.23	49.8355	0.668743	0	-0.359647	-0	1.6362	-0	0	0	0	0.000723044	0	0.000173452	0	0	0
0.48	262.275	942.865	51.9782	0.624898	0	-0.359731	-0	1.45555	-0	0	0	0	0.000723044	0	0.000173452	0	0	0
0.49	246.378	688.048	51.083	0.586317	0	-0.359234	-0	1.20301	-0	0	0	0	0.000723044	0	0.000173452	0	0	0
0.5	196.97	444.791	45.4476	0.552412	0	-0.358321	-0	1.18595	-0	0	0	0	0.000723044	0	0.000173452	0	0	0
0.51	131.891	249.121	35.512	0.523494	0	-0.356049	-0	1.45411	-0	0	0	0	0.000723044	0	0.000173452	0	0	0
0.52	71.269	117.604	23.3855	0.500321	0	-0.352213	-0	1.82294	-0	0	0	0	0.000723044	0	0.000173452	0	0	0
0.53	28.7992	45.2358	12.1162	0.492228	0	-0.350704	-0	2.01347	-0	0	0	0	0.000723044	0	0.000173452	0	0	0
0.54	7.88472	14.5218	4.70225	0.56612	0	-0.344938	-0	1.83165	-0	0	0	0	0.000723044	0	0.000173452	0	0	0
0.55	0	0	0	0.000723044	0	0.000173452	0	0	0	0	0	0	0.000723044	0	0.000173452	0	0	0
0.56	0	0	0	0.000723044	0	0.000173452	0	0	0	0	0	0	0.000723044	0	0.000173452	0	0	0
0.57	0	0	0	0.000723044	0	0.000173452	0	0	0	0	0	0	0.000723044	0	0.000173452	0	0	0
0.58	0	0	0	0.000723044	0	0.000173452	0	0	0	0	0	0	0.000723044	0	0.000173452	0	0	0
0.59	0	0	0	0.000723044	0	0.000173452	0	0	0	0	0	0	0.000723044	0	0.000173452	0	0	0
0.6	0	0	0	0.000723044	0	0.000173452	0	0	0	0	0	0	0.000723044	0	0.000173452	0	0	0
0.61	0	0	0	0.000723044	0	0.000173452	0	0	0	0	0	0	0.000723044	0	0.000173452	0	0	0
0.62	0	0	0	0.000723044	0	0.000173452	0	0	0	-16.1774	32.2962	-0.486173	1.15824	0	-0.423742	-0	1.49399	-0
0.63	0	0	0	0.000723044	0	0.000173452	0	0	0	-56.9232	128.3	6.15332	1.11825	0	-0.43215	-0	0.840337	-0
0.64	0	0	0	0.000723044	0	0.000173452	0	0	0	-129.635	366.053	22.8619	1.1054	0	-0.425078	0	-0.04817	0
0.65	0	0	0	0.000723044	0	0.000173452	0	0	0	-176.539	740.885	43.7267	1.0902	0	-0.413924	0	-0.611299	0
0.66	0	0	0	0.000723044	0	0.000173452	0	0	0	-171.234	1119.76	51.7738	1.06603	0	-0.407257	0	-0.44335	0
0.67	0	0	0	0.000723044	0	0.000173452	0	0	0	-184.265	1372.59	42.2572	1.03726	0	-0.40626	-0	0.34198	-0
0.68	0	0	0	0.000723044	0	0.000173452	0	0	0	-207.247	1506.5	32.4768	1.00305	0	-0.405852	-0	1.13009	-0
0.69	0	0	0	0.000723044	0	0.000173452	0	0	0	-197.428	1599.74	34.8258	0.962855	0	-0.405569	-0	1.24736	-0
0.7	0	0	0	0.000723044	0	0.000173452	0	0	0	-151.341	1675.81	46.3392	0.919409	0	-0.406285	-0	0.442706	-0
0.71	0	0	0	0.000723044	0	0.000173452	0	0	0	-80.5477	1713.62	58.3674	0.875433	0	-0.407159	0	-0.951163	0
0.72	0	0	0	0.000723044	0	0.000173452	0	0	0	5.2072	1699.94	63.1437	0.831496	0	-0.407554	0	-2.21919	0
0.73	0	0	0	0.000723044	0	0.000173452	0	0	0	91.4592	1632.85	57.2547	0.787395	0	-0.406833	0	-2.64606	0
0.74	0	0	0	0.000723044	0	0.000173452	0	0	0	168.38	1510.88	41.8586	0.743609	0	-0.405392	0	-1.8541	0
0.75	0	0	0	0.000723044	0	0.000173452	0	0	0	228.044	1334.21	21.9476	0.699823	0	-0.403131	-0	0.046796	-0
0.76	0	0	0	0.000723044	0	0.000173452	0	0	0	258.865	1105.98	1.50125	0.657378	0	-0.400485	-0	2.52183	-0
0.77	0	0	0	0.000723044	0	0.000173452	0	0	0	255.889	839.73	-16.6407	0.617556	0	-0.398653	-0	4.82193	-0
0.78	0	0	0	0.000723044	0	0.000173452	0	0	0	216.987	567.759	-27.817	0.5817	0	-0.397367	-0	6.25894	-0
0.79	0	0	0	0.000723044	0	0.000173452	0	0	0	151.141	332.212	-29.5193	0.551585	0	-0.395258	-0	6.45575	-0
0.8	0	0	0	0.000723044	0	0.000173452	0	0	0	82.4358	162.535	-24.3163	0.522334	0	-0.394378	-0	5.46371	-0
0.81	0	0	0	0.000723044	0	0.000173452	0	0	0	32.2741	63.829	-15.6842	0.500846	0	-0.396361	-0	3.69636	-0
0.82	0	0	0	0.000723044	0	0.000173452	0	0	0	7.77146	21.6008	-6.61255	0.612842	0	-0.359524	-0	1.73145	-0
0.83	0	0	0	0.000723044	0	0.000173452	0	0	0	0	0	0	0.000723044	0	0.000173452	0	0	0
0.84	0	0	0	0.000723044	0	0.000173452	0	0	0	0	0	0	0.000723044	0	0.000173452	0	0	0
0.85	0	0	0	0.000723044	0	0.000173452	0	0	0	0	0	0	0.000723044	0	0.000173452	0	0	0
0.86	0	0	0	0.000723044	0	0.000173452	0	0	0	0	0	0	0.000723044	0	0.000173452	0	0	0
0.87	0	0	0	0.000723044	0	0.000173452	0	0	0	0	0	0	0.000723044	0	0.000173452	0	0	0
0.88	0	0	0	0.000723044	0	0.000173452	0	0	0	0	0	0	0.000723044	0	0.000173452	0	0	0
0.89	0	0	0	0.000723044	0	0.000173452	0	0	0	0	0	0	0.000723044	0	0.000173452	0	0	0
0.9	0	0	0	0.000723044	0	0.000173452	0	0	0	0	0	0	0.000723044	0	0.000173452	0	0	0
0.91	0	0	0	0.000723044	0	0.000173452	0	0	0	0	0	0	0.000723044	0	0.000173452	0	0	0
0.92	-7.78578	25.3541	-8.80109	1.08123	0	-0.278683	-0	2.6651	-0	0	0	0	0.000723044	0	0.000173452	0	0	0
0.93	-30.5199	102.594	-20.1915	1.1183	0	-0.297987	-0	3.7431	-0	0	0	0	0.000723044	0	0.000173452	0	0	0
0.94	-81.5282	318.937	-33.8664	1.12376	0	-0.304708	-0	3.83491	-0	0	0	0	0.000723044	0	0.000173452	0	0	0
0.95	-138.421	696.938	-39.6055	1.10965	0	-0.309229	-0	2.48368	-0	0	0	0	0.000723044	0	0.000173452	0	0	0
0.96	-170.382	1093.36	-27.8638	1.0867	0	-0.312272	0	-0.170064	0	0	0	0	0.000723044	0	0.000173452	0	0	0
0.97	-205.048	1334.38	-6.92467	1.05978	0	-0.314555	0	-3.28139	0	0	0	0	0.000723044	0	0.000173452	0	0	0
0.98	-239.961	1433.89	4.09196	1.02855	0	-0.316902	0	-5.66584	0	0	0	0	0.000723044	0	0.000173452	0	0	0
0.99	-238.844	1518.66	0.534832	0.992588	0	-0.317552	0	-6.414	0	0	0	0	0.000723044	0	0.000173452	0	0	0
1	-200.076	1626.68	-9.49362	0.955836	0	-0.315516	0	-5.31235	0	0	0	0	0.000723044	0	0.000173452	0	0	0
1.01	-138.875	1707.11	-21.7209	0.920091	0	-0.313417	0	-2.86596	0	0	0	0	0.000723044	0	0.000173452	0	0	0
1.02	-73.8859	1722.19	-32.7871	0.885373	0	-0.312128	0	-0.020973	0	0	0	0	0.000723044	0	0.000173452	0	0	0
1.03	-16.7159	1674.39	-36.5136	0.851827	0	-0.310503	-0	2.24757	-0	0	0	0	0.000723044	0	0.000173452	0	0	0
1.04	35.1939	1575.01	-31.9398	0.818775	0	-0.30894	-0	3.31185	-0	0	0	0	0.000723044	0	0.000173452	0	0	0
